inDegrees=no
num_controls=7
num_derivatives=13
num_iterations=40
num_multipliers=7
num_parameters=0
num_slacks=7
num_states=26
objective=0.426473
objective_accelerations=0.059470
objective_balance=0.001151
objective_effort=0.015535
objective_height=0.344385
objective_ligament=0.005932
solver_duration=587.108098
status=Solve_Succeeded
success=true
DataType=double
version=3
OpenSimVersion=4.5
endheader
time	/jointset/ground_pelvis/pelvis_tilt/value	/jointset/ground_pelvis/pelvis_tx/value	/jointset/ground_pelvis/pelvis_ty/value	/jointset/hip_l/hip_flexion_l/value	/jointset/hip_l/hip_adduction_l/value	/jointset/hip_l/hip_rotation_l/value	/jointset/back/lumbar_extension/value	/jointset/patellofemoral_l/patellar_flexion_l/value	/jointset/knee_l/knee_flexion_l/value	/jointset/knee_l/knee_adduction_l/value	/jointset/knee_l/knee_rotation_l/value	/jointset/ankle_l/ankle_angle_l/value	/jointset/subtalar_l/subtalar_angle_l/value	/jointset/ground_pelvis/pelvis_tilt/speed	/jointset/ground_pelvis/pelvis_tx/speed	/jointset/ground_pelvis/pelvis_ty/speed	/jointset/hip_l/hip_flexion_l/speed	/jointset/hip_l/hip_adduction_l/speed	/jointset/hip_l/hip_rotation_l/speed	/jointset/back/lumbar_extension/speed	/jointset/patellofemoral_l/patellar_flexion_l/speed	/jointset/knee_l/knee_flexion_l/speed	/jointset/knee_l/knee_adduction_l/speed	/jointset/knee_l/knee_rotation_l/speed	/jointset/ankle_l/ankle_angle_l/speed	/jointset/subtalar_l/subtalar_angle_l/speed	/forceset/tau_hip_flexion_l	/forceset/tau_hip_adduction_l	/forceset/tau_hip_rotation_l	/forceset/tau_knee_flexion_l	/forceset/tau_ankle_angle_l	/forceset/tau_subtalar_angle_l	/forceset/tau_lumbar_extension	lambda_cid13_p0	lambda_cid13_p1	lambda_cid13_p2	lambda_cid13_p3	lambda_cid13_p4	lambda_cid13_p5	lambda_cid14_p0	/jointset/ground_pelvis/pelvis_tilt/accel	/jointset/ground_pelvis/pelvis_tx/accel	/jointset/ground_pelvis/pelvis_ty/accel	/jointset/hip_l/hip_flexion_l/accel	/jointset/hip_l/hip_adduction_l/accel	/jointset/hip_l/hip_rotation_l/accel	/jointset/back/lumbar_extension/accel	/jointset/patellofemoral_l/patellar_flexion_l/accel	/jointset/knee_l/knee_flexion_l/accel	/jointset/knee_l/knee_adduction_l/accel	/jointset/knee_l/knee_rotation_l/accel	/jointset/ankle_l/ankle_angle_l/accel	/jointset/subtalar_l/subtalar_angle_l/accel	gamma_cid13_p0	gamma_cid13_p1	gamma_cid13_p2	gamma_cid13_p3	gamma_cid13_p4	gamma_cid13_p5	gamma_cid14_p0
0	0.04750654735521289	0.108303592486211	0.9028504169969719	0.1266922784136757	-0.3701873532464577	-0.2281027082611497	-0.2144969558742783	0.2051545070142297	0.2051545070141877	-0.1745069031817885	-0.1631856479278933	0.09024313228550125	0.07890565203573705	0	0	0	0	0	0	0	0	0	0	0	0	0	0.1151264198114751	-0.03586501929343862	-0.01060279565255609	-0.2476969546474743	0.1883740401284645	-0.1084179425717687	-0.04852616140955224	28.3908893558367	43.07630304179447	-8.246735015705168	-18.06123468624789	-440.0824265447745	-30.05529437964005	-26.35182193893188	-3.512869248847011	-1.146415046890188	-0.8454677639655725	11.72071549364548	-0.01819336039309154	3.242684776951317	-3.643847527878786	10.56529447612516	10.56529447612504	2.576614702765573	-0.8241984003277775	3.409356268157153	0.963520972759406	2.370663156147973e-08	5.973978053866832e-07	-2.22619513922535e-07	4.821979170863937e-08	6.589877931152287e-09	3.168428113324591e-07	9.668577999323405e-08
0.01	0.04733918211767248	0.1082482990809108	0.9028092599729753	0.1272608259451079	-0.3701881984699616	-0.2279317187936337	-0.2146821305918062	0.2056714987095202	0.2056714987094082	-0.1743813574561336	-0.1632141089715777	0.09041239323956798	0.07895342593180747	-0.03329944083327321	-0.01088332953151757	-0.008224264658803453	0.1131030001607502	-0.000269605682349667	0.03418156435559949	-0.03665054486188744	0.1031100802731167	0.1031100802731145	0.02481947878205502	-0.005623034690280143	0.03393803814833337	0.00947357530501459	0.1136525783872454	-0.04438122444239653	-0.01045029634013267	-0.2482140280770937	0.1887537491442706	-0.1007335036832438	-0.04690748796116282	29.00138834796386	39.60714476690968	-7.665198616835308	-19.74714390524148	-440.2377210972595	-37.23907282309398	-26.35155029766065	-3.212437551944245	-1.032979536212347	-0.8098334776167843	11.0141185954354	-0.04648626980697243	3.503494644657614	-3.617998167035737	10.14060665090136	10.14060665090111	2.391241942649635	-0.4210307454071019	3.398922290998348	0.927027522597777	6.991355928662452e-09	9.106922243263503e-07	-1.601229293824279e-07	8.908909080226188e-08	-1.700250451417815e-07	3.352707434794277e-07	1.281174726282579e-07
0.02	0.04684403126147421	0.1080894348543061	0.9026860747702351	0.1289422087417642	-0.3701947681698413	-0.2274193932065973	-0.2152222787982909	0.207210939576994	0.2072109395770012	-0.1740162914473161	-0.1632967353108339	0.09092361351568687	0.07909348592357528	-0.06555712372143471	-0.02071416426089512	-0.01640563574877468	0.2225670530473217	-0.001144895270729306	0.06826722390290174	-0.07099469779130609	0.2044898344660974	0.2044898344660978	0.04790405663306789	-0.01083305906172703	0.06839186440973302	0.01845721913903588	0.1121787369633585	-0.05289742959139079	-0.01029779702630046	-0.2487311015068136	0.1891334581600947	-0.0930490647947705	-0.04528881451247651	29.65939138634852	36.14749418433518	-7.105541979209238	-21.48158083166636	-439.5239032783406	-44.22572520228795	-26.35053933711282	-3.304517659823464	-0.9359160864633154	-0.8368890501990655	10.99292603881004	-0.1393301415989733	3.223503815291776	-3.182569141384398	10.21922926009821	10.21922926009904	2.229634516557413	-0.7415963365613299	3.512513890769159	0.8655346785604935	-9.72391970415483e-09	1.223986643266017e-06	-9.762634484232086e-08	1.299583898958844e-07	-3.466399682147153e-07	3.536986756263963e-07	1.595491652632818e-07
0.03	0.04603028950516395	0.1078355230519842	0.9024812315219615	0.1317026376082384	-0.3702115243384194	-0.2265702815288639	-0.216095941738786	0.20975312878349	0.2097531287835561	-0.1734266076718566	-0.1634311235742192	0.09177808117470064	0.07932157410428207	-0.09710149198478367	-0.03009160013005495	-0.0245549761297651	0.3291071185312521	-0.002147683618645001	0.1013625573823336	-0.1035535507372727	0.3033565940958509	0.3033565940958597	0.06996325781427543	-0.01595360405663783	0.1021884706076289	0.02713688292191628	0.1084171539383385	-0.04798569114407088	-0.009277053638453554	-0.2434681978912726	0.1813167602131782	-0.09419267149064037	-0.04259797347961222	27.04509050269148	36.91993166164493	-7.02082803625454	-19.29711921146121	-439.6800278662486	-41.85971845947955	-26.34849846235873	-3.065928331196399	-0.9421417723117435	-0.8028209070433345	10.42280747842474	-0.07212337558799826	3.323716258089382	-3.264892433784073	9.631655367303088	9.631655367303827	2.183844216896448	-0.3836789392050488	3.266291781439291	0.8654703179969893	-1.168289973495573e-08	1.37727856454326e-06	-1.330552857089026e-07	1.546874028486069e-07	-4.850829752617402e-07	4.003409804895771e-07	1.8843231483003e-07
